<?xml version="1.0" encoding="UTF-8"?>
<svg version="1.1" xmlns="http://www.w3.org/2000/svg" width="512" height="512">
<path d="M0 0 C0.4021875 0.90878906 0.4021875 0.90878906 0.8125 1.8359375 C7.69843198 16.55914732 19.34347561 28.80783088 34.80859375 34.44921875 C36.1817351 34.91310907 37.55809424 35.36758297 38.9375 35.8125 C39.56914062 36.01955566 40.20078125 36.22661133 40.8515625 36.43994141 C49.2283829 38.9610585 57.73791749 39.04863755 66.4140625 39 C68.70573663 39.00078861 70.99739243 39.0039605 73.2890625 39.00830078 C74.85005134 39.00275379 76.41105341 38.98282655 77.97167969 38.94873047 C90.92021308 38.69127742 90.92021308 38.69127742 95.89550781 41.82202148 C98.20639119 44.08602364 100.10875968 46.37927367 102 49 C102.5151416 49.62277832 103.0302832 50.24555664 103.56103516 50.88720703 C104.94589772 52.5698895 106.23129491 54.29100264 107.5 56.0625 C108.18690918 57.01394897 108.18690918 57.01394897 108.88769531 57.98461914 C121.37240814 75.63236203 129.62379815 95.13218333 135 116 C135.18079102 116.68094727 135.36158203 117.36189453 135.54785156 118.06347656 C145.11996897 155.95231505 136.54123616 200.52066406 116.84375 233.70703125 C107.45759715 248.95614994 95.97204419 263.73931403 82 275 C81.05640625 275.76957031 80.1128125 276.53914063 79.140625 277.33203125 C71.20954799 283.67960392 62.84377089 289.01396149 54 294 C53.09122038 294.54175983 53.09122038 294.54175983 52.16408157 295.0944643 C49.39312212 296.25394125 47.16303373 296.27256951 44.15985107 296.30107117 C42.96583679 296.31682693 41.77182251 296.3325827 40.54162598 296.34881592 C38.58114319 296.3592392 38.58114319 296.3592392 36.58105469 296.36987305 C35.18771625 296.38404743 33.79438519 296.39896382 32.40106201 296.41456604 C27.8247291 296.46176867 23.24837807 296.48750776 18.671875 296.51171875 C17.09101565 296.52113173 15.51015678 296.53062624 13.9292984 296.54020119 C7.34444543 296.57870646 0.75960513 296.61190676 -5.82533646 296.63057232 C-15.22848365 296.65729764 -24.63024439 296.71461238 -34.0328896 296.81633729 C-40.66077055 296.88555814 -47.28828621 296.9195764 -53.91651988 296.92813712 C-57.86574255 296.93410136 -61.81353843 296.95460127 -65.76236725 297.01270103 C-96.96072759 297.44886009 -96.96072759 297.44886009 -110 287 C-111.08699973 286.22206639 -112.17959081 285.4518804 -113.27789307 284.68998718 C-116.29037048 282.57118815 -119.1431865 280.32418725 -122 278 C-122.55929199 277.54753906 -123.11858398 277.09507812 -123.69482422 276.62890625 C-151.11592906 254.29867136 -168.21444682 225.87554807 -178 192 C-178.53753906 190.16115234 -178.53753906 190.16115234 -179.0859375 188.28515625 C-189.3127794 147.32716071 -180.37662832 102.80848304 -159 67 C-141.75533722 39.47420745 -117.33490087 18.71346992 -88 5 C-87.28841232 4.66067444 -86.57682465 4.32134888 -85.84367371 3.97174072 C-82.36936845 2.78450046 -79.0918034 2.60697398 -75.45922852 2.49755859 C-74.71711121 2.46800583 -73.9749939 2.43845306 -73.21038818 2.40800476 C-70.76680087 2.31286564 -68.32296332 2.23054368 -65.87890625 2.1484375 C-64.17403882 2.08479039 -62.46919985 2.02037661 -60.76438904 1.95523071 C-56.28057024 1.78609464 -51.79642625 1.62798195 -47.31213379 1.47198486 C-43.65868714 1.34312079 -40.00554143 1.20670558 -36.35238743 1.06982994 C-28.79193521 0.78658887 -21.23128896 0.50842063 -13.67016602 0.24365234 C-12.97958603 0.21874222 -12.28900604 0.19383209 -11.57749939 0.16816711 C-7.7163143 0.03516641 -3.86338421 -0.0233406 0 0 Z M-99.80493164 71.82788086 C-120.65108814 91.89428222 -132.88252958 119.19219096 -133.48999023 148.05493164 C-133.51945766 159.30070757 -133.30815948 170.18007988 -130 181 C-129.69400879 182.01078613 -129.69400879 182.01078613 -129.38183594 183.04199219 C-120.29146202 212.43023159 -100.9988757 236.21562126 -74 251 C-48.60849784 264.34690358 -18.25309919 267.66030692 9.37890625 259.5390625 C39.45396919 249.82777793 63.56028905 230.03295486 78.10498047 201.82226562 C89.81468931 177.98122176 93.56690827 148.72138576 86 123 C85.6596875 121.77925781 85.319375 120.55851562 84.96875 119.30078125 C76.34343498 90.94797209 56.00060074 67.05201006 30 53 C-13.83298481 30.81195581 -64.10258844 38.56682336 -99.80493164 71.82788086 Z " fill="#6866EA" transform="translate(278,104)"/>
<path d="M0 0 C19.41513413 15.83036047 34.05409201 37.67987498 37 63 C39.00706443 91.38316441 34.11130766 116.2402984 15.84375 138.64453125 C-0.57892148 157.46699451 -22.83614019 171.43272251 -48.21777344 173.22753906 C-76.8329536 174.49950262 -101.20094475 168.80835389 -123.1875 149.625 C-141.72962913 132.23989973 -154.23970686 110.00534464 -155.3828125 84.2890625 C-156.09445376 55.78869783 -149.21659255 31.57486407 -129.3359375 10.37109375 C-94.83017582 -24.65398542 -39.47352935 -30.18232772 0 0 Z " fill="#6367E6" transform="translate(315,179)"/>
<path d="M0 0 C1.19139587 -0.00043808 2.38279175 -0.00087616 3.61029053 -0.00132751 C6.84529208 0.00039214 10.07989336 0.01533368 13.314816 0.03639436 C16.70736703 0.05527533 20.09992772 0.05692052 23.49252319 0.06047058 C29.90255472 0.06975778 36.31243091 0.09432594 42.72239435 0.12451905 C50.02597193 0.15816729 57.32955733 0.17457514 64.63319325 0.18960536 C79.64407177 0.22087895 94.6547488 0.27584879 109.66552734 0.34057617 C109.66552734 8.26057617 109.66552734 16.18057617 109.66552734 24.34057617 C77.98552734 24.34057617 46.30552734 24.34057617 13.66552734 24.34057617 C13.66552734 29.62057617 13.66552734 34.90057617 13.66552734 40.34057617 C45.34552734 40.34057617 77.02552734 40.34057617 109.66552734 40.34057617 C109.66552734 45.62057617 109.66552734 50.90057617 109.66552734 56.34057617 C77.98552734 56.34057617 46.30552734 56.34057617 13.66552734 56.34057617 C13.66552734 61.62057617 13.66552734 66.90057617 13.66552734 72.34057617 C45.34552734 72.34057617 77.02552734 72.34057617 109.66552734 72.34057617 C109.66552734 80.26057617 109.66552734 88.18057617 109.66552734 96.34057617 C93.96594346 96.43109981 78.2665686 96.50468743 62.56679916 96.54782486 C55.27604535 96.56839255 47.985466 96.5964012 40.69482422 96.64233398 C34.33541814 96.68238044 27.9761385 96.70805102 21.61660981 96.71693015 C18.253567 96.72211517 14.89117036 96.73632201 11.52819061 96.7634964 C7.7609298 96.79271504 3.99440745 96.79652431 0.22705078 96.79467773 C-0.87059601 96.80905884 -1.9682428 96.82343994 -3.09915161 96.83825684 C-17.1532614 96.76416571 -27.89655024 91.48032804 -38.08447266 82.02807617 C-48.07738303 71.46952936 -50.84887047 59.92229694 -50.75415039 45.81030273 C-50.34337009 31.68791378 -44.49735366 20.61191891 -34.27197266 10.93432617 C-23.87247204 2.37989825 -13.22801924 -0.12913678 0 0 Z " fill="#5DABF3" transform="translate(338.33447265625,31.659423828125)"/>
<path d="M0 0 C1.24037073 -0.00644889 2.48074146 -0.01289778 3.75869918 -0.0195421 C5.14785028 -0.01659936 6.53700099 -0.01346388 7.92615128 -0.01015663 C9.39203255 -0.01388998 10.85791183 -0.01849023 12.32378793 -0.02388728 C16.36666847 -0.03617211 20.40946661 -0.03585039 24.45236158 -0.03349853 C28.80695986 -0.03309173 33.16153123 -0.04411644 37.5161171 -0.05361366 C46.05370747 -0.07025537 54.59127023 -0.07572466 63.12887546 -0.07683842 C70.06718701 -0.07778753 77.00548941 -0.08189096 83.94379807 -0.08823967 C103.60175254 -0.10586183 123.25968514 -0.11507718 142.91764757 -0.11357872 C144.50864249 -0.11345885 144.50864249 -0.11345885 146.13177872 -0.11333656 C147.19373271 -0.1132548 148.2556867 -0.11317304 149.34982112 -0.1130888 C166.55957162 -0.11227594 183.76923459 -0.13141106 200.97895977 -0.1596133 C218.63663208 -0.18832191 236.29426169 -0.20215466 253.95195794 -0.20042574 C263.87063684 -0.19976107 273.78922401 -0.20528686 283.70788193 -0.22678185 C292.15374338 -0.24496722 300.59947156 -0.24936291 309.04534408 -0.235763 C313.35596181 -0.22921953 317.66632366 -0.22916553 321.97691727 -0.2464695 C325.92241023 -0.26214508 329.86744329 -0.25939352 333.81292465 -0.24190123 C335.24095881 -0.23881907 336.66902682 -0.24250938 338.09702107 -0.25362138 C351.32210066 -0.34972398 351.32210066 -0.34972398 356.21088028 4.25726891 C359.640051 7.95716363 360.51057777 10.83650381 360.71088028 15.75726891 C360.51057777 20.67803401 359.640051 23.55737418 356.21088028 27.25726891 C344.65722653 36.26873083 323.52055513 30.34012811 309.95225334 28.84972191 C305.90300999 28.40501837 301.8527791 27.97061398 297.80211258 27.53912926 C289.93614837 26.69955082 282.07152687 25.84780968 274.20707321 24.99421501 C264.18664139 23.90692739 254.16578417 22.82377659 244.14339179 21.75469732 C240.78197754 21.39576993 237.42094021 21.03386757 234.06062126 20.6648159 C230.31291636 20.25399388 226.56439326 19.8515352 222.81561661 19.45062828 C221.1841922 19.26828888 221.1841922 19.26828888 219.51980972 19.08226585 C206.9500022 16.91706481 206.9500022 16.91706481 195.40464878 19.58614922 C192.75013813 23.30211677 193.0592402 27.0360874 192.99994278 31.44476891 C192.97188558 32.87967637 192.9432212 34.31457207 192.91400528 35.74945641 C192.87267991 38.0075925 192.83578446 40.26550609 192.80951309 42.52387047 C192.78193562 44.70629464 192.73608284 46.88772624 192.68744278 49.06976891 C192.66762344 50.37558922 192.64780411 51.68140953 192.62738419 53.02680016 C192.21088028 56.25726891 192.21088028 56.25726891 191.18109512 58.14398766 C185.6527336 61.26782019 179.59677605 60.21760583 173.7638588 58.65619469 C173.05822674 58.47165607 172.35259468 58.28711746 171.62557983 58.09698677 C169.27649025 57.4790711 166.93344467 56.84076107 164.58978653 56.20258141 C162.89265033 55.75226442 161.1951447 55.3033378 159.49730301 54.8556881 C155.83867075 53.88826572 152.18254186 52.91206259 148.52814102 51.92877769 C142.72436853 50.36721112 136.91601579 48.82325859 131.10638809 47.28363609 C130.11889132 47.02193375 129.13139454 46.7602314 128.11397362 46.49059868 C126.08768855 45.953669 124.06138283 45.41681723 122.03505707 44.88004112 C118.91641503 44.05327516 115.79828862 43.22458512 112.68021011 42.39569664 C97.12260771 38.26481502 81.53864141 34.24321744 65.94134903 30.26508141 C63.69572717 29.69148587 61.45012665 29.11780678 59.20454788 28.54404259 C50.45540729 26.3093862 41.70621847 24.07501793 32.95261002 21.85791588 C27.82866113 20.55997639 22.70695275 19.25353402 17.58674431 17.94091988 C15.6982317 17.45857994 13.80886728 16.97956149 11.91861916 16.50406837 C9.33444043 15.85373048 6.75339355 15.19215299 4.17279434 14.52777672 C3.41821221 14.34087839 2.66363008 14.15398006 1.88618183 13.96141815 C-1.88186633 12.97808727 -5.04033067 12.10501833 -7.78911972 9.25726891 C-8.16411972 5.69476891 -8.16411972 5.69476891 -7.78911972 2.25726891 C-5.0995111 -0.43233971 -3.76267548 0.00492008 0 0 Z " fill="#7D3FEE" transform="translate(79.78911972045898,415.74273109436035)"/>
<path d="M0 0 C1.37786243 0.01736339 2.75574145 0.03345031 4.13363266 0.04835606 C8.57481417 0.10636362 13.01414143 0.21225704 17.45410156 0.32983398 C18.183417 0.34884435 18.91273243 0.36785472 19.66414833 0.38744116 C30.51310184 0.67678348 41.3571337 1.08077492 52.20138645 1.50847697 C56.50917321 1.67731113 60.8171954 1.83994442 65.12518311 2.0035553 C72.3188084 2.27769441 79.5122396 2.55652262 86.70556641 2.83837891 C95.01460062 3.16389676 103.32389821 3.48188691 111.63336968 3.79602998 C119.68373636 4.10053103 127.733904 4.4100109 135.78398895 4.7218647 C139.19215845 4.85381965 142.60038689 4.98406455 146.00867462 5.11292839 C149.99823076 5.26400769 153.98759339 5.41944876 157.97684669 5.57831764 C159.43975513 5.63587644 160.90272377 5.69192736 162.36575127 5.74637604 C164.35786213 5.82076561 166.34974772 5.90111703 168.34161377 5.98179626 C169.456357 6.02512053 170.57110023 6.06844481 171.71962357 6.11308193 C174.45410156 6.32983398 174.45410156 6.32983398 177.45410156 7.32983398 C177.45410156 13.26983398 177.45410156 19.20983398 177.45410156 25.32983398 C174.74462797 26.68457078 172.50172865 26.55994979 169.46859741 26.6778717 C168.19107101 26.72973129 166.91354462 26.78159088 165.5973053 26.83502197 C164.17245836 26.8881561 162.74760776 26.94119232 161.32275391 26.99414062 C159.82758615 27.05302198 158.33243364 27.11229146 156.83729553 27.17192078 C152.75911156 27.3332864 148.68072117 27.48871939 144.6022563 27.64280248 C141.17783131 27.77269474 137.75351835 27.9054166 134.32920134 28.03812021 C126.21409146 28.3525441 118.09880721 28.66214495 109.98339844 28.96875 C101.69152685 29.28209956 93.39997943 29.60312709 85.10856092 29.92822748 C77.94646678 30.20877397 70.78419351 30.48438663 63.62176669 30.75630659 C59.36509955 30.91794909 55.1085138 31.08121546 50.85209274 31.24922371 C40.05440868 31.67387546 29.25665446 32.05258942 18.45410156 32.32983398 C17.69355248 32.34955434 16.93300341 32.3692747 16.14940739 32.38959265 C11.63402662 32.50219612 7.11940735 32.58668547 2.60285878 32.63395965 C1.21482887 32.65086217 -0.17313924 32.67435762 -1.56093335 32.70502102 C-14.60217135 32.97870717 -14.60217135 32.97870717 -19.54589844 28.32983398 C-23.17423507 24.51053226 -23.85590302 21.44704392 -24.04589844 16.32983398 C-23.85590302 11.21262405 -23.17423507 8.1491357 -19.54589844 4.32983398 C-13.77213021 -1.02708786 -7.53878554 -0.16841509 0 0 Z " fill="#607CEA" transform="translate(95.5458984375,63.670166015625)"/>
</svg>
